<svg width="71" height="67" viewBox="0 0 71 67" fill="none" xmlns="http://www.w3.org/2000/svg">
<ellipse cx="35.1803" cy="33.5" rx="35.1803" ry="33.5" fill="white"/>
<path d="M34.5 30.2C32.6437 30.2 31.0547 29.5538 29.7328 28.2613C28.4109 26.9688 27.75 25.415 27.75 23.6C27.75 21.785 28.4109 20.2313 29.7328 18.9388C31.0547 17.6462 32.6437 17 34.5 17C36.3562 17 37.9453 17.6462 39.2672 18.9388C40.5891 20.2313 41.25 21.785 41.25 23.6C41.25 25.415 40.5891 26.9688 39.2672 28.2613C37.9453 29.5538 36.3562 30.2 34.5 30.2ZM34.5 26.9C35.4281 26.9 36.2227 26.5769 36.8836 25.9306C37.5445 25.2844 37.875 24.5075 37.875 23.6C37.875 22.6925 37.5445 21.9156 36.8836 21.2694C36.2227 20.6231 35.4281 20.3 34.5 20.3C33.5719 20.3 32.7773 20.6231 32.1164 21.2694C31.4555 21.9156 31.125 22.6925 31.125 23.6C31.125 24.5075 31.4555 25.2844 32.1164 25.9306C32.7773 26.5769 33.5719 26.9 34.5 26.9ZM21 50V38.8213C21 37.8863 21.2391 37.0269 21.7172 36.2431C22.1953 35.4594 22.8562 34.8475 23.7 34.4075C25.1344 33.6925 26.7586 33.0875 28.5727 32.5925C30.3867 32.0975 32.3625 31.85 34.5 31.85C36.6375 31.85 38.6133 32.0975 40.4273 32.5925C42.2414 33.0875 43.8656 33.6925 45.3 34.4075C46.1437 34.8475 46.8047 35.4594 47.2828 36.2431C47.7609 37.0269 48 37.8863 48 38.8213V46.7C48 47.6075 47.6695 48.3844 47.0086 49.0306C46.3477 49.6769 45.5531 50 44.625 50H30.7031C29.4094 50 28.3125 49.56 27.4125 48.68C26.5125 47.8 26.0625 46.7275 26.0625 45.4625C26.0625 44.1975 26.5125 43.125 27.4125 42.245C28.3125 41.365 29.4094 40.925 30.7031 40.925H35.4703L38.0859 35.48C37.5234 35.37 36.9469 35.2875 36.3562 35.2325C35.7656 35.1775 35.1469 35.15 34.5 35.15C32.475 35.15 30.675 35.3906 29.1 35.8719C27.525 36.3531 26.2453 36.855 25.2609 37.3775C24.9797 37.515 24.7617 37.7144 24.607 37.9756C24.4523 38.2369 24.375 38.5188 24.375 38.8213V50H21ZM30.7031 46.7H32.7281L33.9094 44.225H30.7031C30.3656 44.225 30.0703 44.3488 29.8172 44.5963C29.5641 44.8438 29.4375 45.1325 29.4375 45.4625C29.4375 45.7925 29.5641 46.0813 29.8172 46.3288C30.0703 46.5763 30.3656 46.7 30.7031 46.7ZM36.4406 46.7H44.625V38.8213C44.625 38.5188 44.5477 38.2369 44.393 37.9756C44.2383 37.7144 44.0344 37.515 43.7812 37.3775C43.4437 37.2125 43.0781 37.0406 42.6844 36.8619C42.2906 36.6831 41.8687 36.5112 41.4187 36.3462L36.4406 46.7Z" fill="#4D4D4D" fill-opacity="0.8"/>
</svg>
